# xmcd CD database file
#
# Track frame offsets:
#	150
#	38437
#	67780
#	102640
#	133797
#	171505
#
# Disc length: 2630 seconds
#
# Revision: 0
# Processed by: cddbd v1.5.1PL0 Copyright (c) Steve Scherf et al.
# Submitted via: CDex 1.51
#
DISCID=4d0a4406
DTITLE=Freddie Hubbard And Others - Jazz of The 80's
DYEAR=1980
DGENRE=Jazz
TTITLE0=Intrepid Fox
TTITLE1=Bahama Mama
TTITLE2=Baffled
TTITLE3=Strap Hanging
TTITLE4=Good Morning Heartache
TTITLE5=Home Stretch
EXTD=YEAR: 1980
EXTT0=
EXTT1=
EXTT2=
EXTT3=
EXTT4=
EXTT5=
PLAYORDER=
